<svg viewBox="120 -840 720 720" width="24" height="24" xmlns="http://www.w3.org/2000/svg">
  <path d="M 480.134 -120 C 430.506 -120 383.908 -129.446 340.34 -148.339 C 296.771 -167.232 258.611 -193.04 225.859 -225.761 C 193.108 -258.482 167.277 -296.607 148.366 -340.134 C 129.455 -383.661 120 -430.239 120 -479.866 C 120 -529.648 129.446 -576.451 148.339 -620.276 C 167.232 -664.101 193.04 -702.222 225.761 -734.641 C 258.482 -767.059 296.607 -792.723 340.134 -811.634 C 383.661 -830.545 430.239 -840 479.866 -840 C 529.648 -840 576.451 -830.554 620.276 -811.661 C 664.101 -792.768 702.222 -767.127 734.641 -734.739 C 767.059 -702.351 792.723 -664.265 811.634 -620.482 C 830.545 -576.698 840 -529.915 840 -480.134 C 840 -430.506 830.554 -383.908 811.661 -340.34 C 792.768 -296.771 767.127 -258.611 734.739 -225.859 C 702.351 -193.108 664.265 -167.277 620.482 -148.366 C 576.698 -129.455 529.915 -120 480.134 -120 Z M 480 -150.769 C 571.59 -150.769 649.359 -182.782 713.308 -246.808 C 777.257 -310.833 809.231 -388.564 809.231 -480 C 809.231 -571.59 777.257 -649.359 713.308 -713.308 C 649.359 -777.257 571.59 -809.231 480 -809.231 C 388.564 -809.231 310.833 -777.257 246.808 -713.308 C 182.782 -649.359 150.769 -571.59 150.769 -480 C 150.769 -388.564 182.782 -310.833 246.808 -246.808 C 310.833 -182.782 388.564 -150.769 480 -150.769 Z M 480 -480 Z" transform="matrix(1, 0, 0, 1, 7.105427357601002e-15, 0)"/>
  <path d="M 419.73 -316.339 L 267.422 -459.242 L 336.838 -529.104 L 425.197 -446.223 L 623.16 -630.54 L 688.204 -558.489 L 419.73 -316.339 Z" style="fill: rgb(32, 99, 25);" transform="matrix(1, 0, 0, 1, 7.105427357601002e-15, 0)"/>
</svg>