<svg xmlns="http://www.w3.org/2000/svg" width="86.97" height="28" class="mt-2" style="color: rgba(0, 0, 0, 0.88); width: 100%;">
	<path fill-rule="evenodd" stroke="#000" stroke-linecap="round" stroke-width="0.945" d="m25.22 24.622.52-1.95a2.576 2.576 0 0 0 .303.149q.157.066.341.123a4.822 4.822 0 0 0 .136.04 3.514 3.514 0 0 0 .592.109 4.513 4.513 0 0 0 .448.021q1.092 0 1.95-.702a3.121 3.121 0 0 0 .503-.536q.454-.601.886-1.602a15.231 15.231 0 0 0 .249-.618l.598-1.56h-1.248L25.22 6.214l2.08-.936 5.044 11.258L36.27 5.382l2.158.832-4.966 13.572a18.649 18.649 0 0 1-.534 1.323q-.286.634-.59 1.151a8.024 8.024 0 0 1-.514.776 6.31 6.31 0 0 1-.748.835q-.498.46-1.045.73a3.832 3.832 0 0 1-.157.073q-1.066.468-2.366.468-.78 0-1.365-.156a5.285 5.285 0 0 1-.373-.113q-.174-.061-.319-.128a2.24 2.24 0 0 1-.231-.123Zm37.674-5.512h-2.34V5.59h2.262v2.262q.728-1.092 1.859-1.833 1.131-.741 2.691-.741a6.038 6.038 0 0 1 1.317.135q1.324.296 2.102 1.243 1.131 1.378 1.131 3.64v8.814h-2.34v-8.554q0-1.456-.689-2.34a2.231 2.231 0 0 0-1.632-.872 3.136 3.136 0 0 0-.279-.012q-1.196 0-2.262.845t-1.82 1.989v8.944Zm-38.922-5.798h-9.464a6.263 6.263 0 0 0 .296 1.307q.31.883.885 1.508a3.895 3.895 0 0 0 .145.149 3.677 3.677 0 0 0 1.982.991 5.206 5.206 0 0 0 .904.075q1.17 0 2.106-.247.936-.247 1.794-.637l.546 2.002a10.6 10.6 0 0 1-1.127.423 13.484 13.484 0 0 1-.979.266q-1.17.273-2.626.273a7.363 7.363 0 0 1-2.014-.261 5.488 5.488 0 0 1-2.601-1.598 6.116 6.116 0 0 1-1.353-2.48q-.263-.91-.328-1.992a12.252 12.252 0 0 1-.022-.741q0-2.028.767-3.627a6.407 6.407 0 0 1 1.304-1.841 5.951 5.951 0 0 1 .841-.681 5.473 5.473 0 0 1 2.667-.902 6.813 6.813 0 0 1 .531-.021q1.764 0 2.986.692a4.475 4.475 0 0 1 .251.153q1.287.845 1.937 2.275a7.328 7.328 0 0 1 .631 2.565 8.693 8.693 0 0 1 .019.581 19.553 19.553 0 0 1-.076 1.741 17.893 17.893 0 0 1-.002.027Zm62.92 0h-9.464a6.263 6.263 0 0 0 .296 1.307q.31.883.885 1.508a3.895 3.895 0 0 0 .145.149 3.677 3.677 0 0 0 1.982.991 5.206 5.206 0 0 0 .904.075q1.17 0 2.106-.247.936-.247 1.794-.637l.546 2.002a10.6 10.6 0 0 1-1.127.423 13.484 13.484 0 0 1-.979.266q-1.17.273-2.626.273a7.363 7.363 0 0 1-2.014-.261 5.488 5.488 0 0 1-2.601-1.598 6.116 6.116 0 0 1-1.353-2.48q-.263-.91-.328-1.992a12.252 12.252 0 0 1-.022-.741q0-2.028.767-3.627a6.407 6.407 0 0 1 1.304-1.841 5.951 5.951 0 0 1 .841-.681 5.473 5.473 0 0 1 2.667-.902 6.813 6.813 0 0 1 .531-.021q1.764 0 2.986.692a4.475 4.475 0 0 1 .251.153q1.287.845 1.937 2.275a7.328 7.328 0 0 1 .631 2.565 8.693 8.693 0 0 1 .019.581 19.553 19.553 0 0 1-.076 1.741 17.893 17.893 0 0 1-.002.027ZM10.816 19.11H0V.91h2.47V16.9h8.346v2.21Zm41.028 0H41.028V.91h2.47V16.9h8.346v2.21Zm4.55 0h-2.34V5.59h2.34v13.52Zm-41.912-7.696h7.41a6.332 6.332 0 0 0-.105-1.192q-.217-1.132-.883-1.85a3.247 3.247 0 0 0-1.81-.982 4.783 4.783 0 0 0-.92-.084 3.531 3.531 0 0 0-1.329.243 3.256 3.256 0 0 0-1.167.81 3.943 3.943 0 0 0-.765 1.219q-.219.536-.339 1.192a8.325 8.325 0 0 0-.092.644Zm62.92 0h7.41a6.332 6.332 0 0 0-.105-1.192q-.217-1.132-.883-1.85a3.247 3.247 0 0 0-1.81-.982 4.783 4.783 0 0 0-.92-.084 3.531 3.531 0 0 0-1.329.243 3.256 3.256 0 0 0-1.167.81 3.943 3.943 0 0 0-.765 1.219q-.219.536-.339 1.192a8.325 8.325 0 0 0-.092.644ZM54.09 2.805a1.553 1.553 0 0 0 1.134.471 2.126 2.126 0 0 0 .389-.034 1.468 1.468 0 0 0 .807-.421q.442-.455.442-1.183a1.891 1.891 0 0 0 0-.021 1.576 1.576 0 0 0-.481-1.136 1.925 1.925 0 0 0-.015-.015A1.575 1.575 0 0 0 55.224 0a2.149 2.149 0 0 0-.431.041 1.472 1.472 0 0 0-.765.401 1.453 1.453 0 0 0-.382.685 2.077 2.077 0 0 0-.06.511 1.558 1.558 0 0 0 .128.629 1.727 1.727 0 0 0 .353.515 1.942 1.942 0 0 0 .023.023Z" font-size="12" vector-effect="non-scaling-stroke" style="stroke: rgba(0, 0, 0, 0.88); stroke-width: 0.25mm; fill: rgba(0, 0, 0, 0.88);">
	</path>
</svg>
